<svg width="11" height="11" viewBox="0 0 11 11" fill="none" xmlns="http://www.w3.org/2000/svg">
<path d="M1.2567 5.69994C0.979521 5.69994 0.755237 5.47447 0.756704 5.1973L0.759153 4.73447C0.760606 4.4598 0.98336 4.23773 1.25804 4.23712L3.75202 4.23159C4.02729 4.23098 4.2503 4.00798 4.25091 3.7327L4.25644 1.23613C4.25705 0.962472 4.47754 0.740146 4.75118 0.737266L5.22173 0.732313C5.49992 0.729384 5.72699 0.954085 5.72699 1.23229L5.72699 3.72275C5.72699 3.9989 5.95085 4.22275 6.22699 4.22275L8.71746 4.22275C8.99566 4.22275 9.22036 4.44983 9.21743 4.72802L9.21248 5.19857C9.2096 5.47221 8.98727 5.6927 8.71362 5.6933L6.21705 5.69884C5.94177 5.69945 5.71877 5.92245 5.71816 6.19773L5.71263 8.69171C5.71202 8.96639 5.48995 9.18914 5.21527 9.19059L4.75245 9.19304C4.47528 9.19451 4.2498 8.97023 4.2498 8.69305L4.2498 6.19994C4.2498 5.9238 4.02595 5.69994 3.7498 5.69994L1.2567 5.69994Z" fill="#4CB349"/>
</svg>
