<svg width="10" height="10" viewBox="0 0 10 10" fill="none" xmlns="http://www.w3.org/2000/svg">
<path d="M2.88355 8.16097C2.68756 8.35696 2.36953 8.35612 2.17458 8.15909L1.84905 7.83009C1.65585 7.63484 1.65633 7.3203 1.85013 7.12565L3.60973 5.35822C3.80395 5.16314 3.80395 4.84777 3.60973 4.65269L1.8483 2.88343C1.65523 2.6895 1.65393 2.37638 1.84538 2.18085L2.17461 1.84462C2.36925 1.64584 2.6887 1.64416 2.88542 1.84088L4.64645 3.6019C4.84171 3.79717 5.15829 3.79717 5.35355 3.6019L7.11458 1.84088C7.3113 1.64416 7.63075 1.64584 7.82539 1.84462L8.15462 2.18085C8.34607 2.37638 8.34477 2.6895 8.1517 2.88343L6.39027 4.65269C6.19605 4.84777 6.19605 5.16314 6.39027 5.35823L8.14987 7.12565C8.34367 7.3203 8.34415 7.63484 8.15095 7.83009L7.82542 8.15909C7.63047 8.35612 7.31244 8.35696 7.11645 8.16097L5.35355 6.39807C5.15829 6.20281 4.84171 6.20281 4.64645 6.39807L2.88355 8.16097Z" fill="#E2624A"/>
</svg>
