<svg width="10" height="10" viewBox="0 0 10 10" fill="none" xmlns="http://www.w3.org/2000/svg">
<path d="M1.85477 9.26335C1.66242 9.26335 1.49563 9.19274 1.35441 9.05152C1.21319 8.9103 1.14258 8.74351 1.14258 8.55116V2.29233H1.85477V8.55116H6.76985V9.26335H1.85477ZM3.18946 7.92616C2.9978 7.92616 2.83161 7.8558 2.69087 7.71506C2.55013 7.57432 2.47977 7.40813 2.47977 7.21647V1.42798C2.47977 1.23563 2.55013 1.06885 2.69087 0.927623C2.83161 0.786401 2.9978 0.71579 3.18946 0.71579H7.72795C7.9203 0.71579 8.08709 0.786401 8.22831 0.927623C8.36953 1.06885 8.44014 1.23563 8.44014 1.42798V7.21647C8.44014 7.40813 8.36953 7.57432 8.22831 7.71506C8.08709 7.8558 7.9203 7.92616 7.72795 7.92616H3.18946ZM3.18946 7.21647H7.72795V1.42798H3.18946V7.21647Z" fill="white"/>
</svg>
