<svg width="8" height="8" viewBox="0 0 8 8" fill="none" xmlns="http://www.w3.org/2000/svg">
<path d="M3.76673 7.23333V6.19999L5.6084 4.36666L6.6334 5.39166L4.80007 7.23333H3.76673ZM0.733398 5.71666V4.58333H3.6834V5.71666H0.733398ZM6.86673 5.15833L5.84173 4.13333L6.0834 3.89166C6.1834 3.7861 6.31395 3.73194 6.47507 3.72916C6.63618 3.72638 6.76673 3.78055 6.86673 3.89166L7.1084 4.13333C7.21951 4.23333 7.27368 4.36388 7.2709 4.52499C7.26812 4.6861 7.21395 4.81666 7.1084 4.91666L6.86673 5.15833ZM0.733398 4.06666V2.93333H4.90007V4.06666H0.733398ZM0.733398 2.41666V1.28333H4.90007V2.41666H0.733398Z" fill="white" fill-opacity="0.5"/>
</svg>
