<svg width="10" height="10" viewBox="0 0 10 10" fill="none" xmlns="http://www.w3.org/2000/svg">
<path d="M1.40625 5.83446C1.40625 5.06288 1.60764 4.3698 2.01042 3.75522C2.41319 3.14064 2.85338 2.61574 3.33097 2.18053C3.80855 1.74533 4.24952 1.412 4.65389 1.18053L5.26042 0.833344V2.62501C5.26042 2.80374 5.3203 2.94391 5.44005 3.04552C5.55982 3.14712 5.6936 3.19793 5.84142 3.19793C5.91936 3.19793 5.99657 3.18161 6.07303 3.14897C6.1495 3.11633 6.21891 3.05973 6.28125 2.97918L6.60417 2.57293C7.20833 2.92709 7.69097 3.39237 8.05208 3.96876C8.41319 4.54515 8.59375 5.16501 8.59375 5.82834C8.59375 6.47334 8.44271 7.06077 8.14062 7.59063C7.83854 8.1205 7.4375 8.54168 6.9375 8.85418C7.09163 8.66085 7.20828 8.44636 7.28747 8.21072C7.36666 7.97507 7.40625 7.726 7.40625 7.46352C7.40625 7.13368 7.34728 6.82642 7.22933 6.54175C7.11138 6.25708 6.93584 6.00048 6.70271 5.77194L5 4.10418L3.3125 5.77084C3.07639 5.99307 2.89757 6.24841 2.77604 6.53688C2.65451 6.82535 2.59375 7.13343 2.59375 7.46113C2.59375 7.72316 2.63334 7.97236 2.71253 8.20873C2.79172 8.4451 2.90838 8.66025 3.0625 8.85418C2.5625 8.54168 2.16146 8.11999 1.85938 7.58912C1.55729 7.05825 1.40625 6.47336 1.40625 5.83446ZM5 6.09376L5.70486 6.78563C5.79745 6.88688 5.86806 6.99354 5.91667 7.10559C5.96528 7.21766 5.98958 7.33524 5.98958 7.45834C5.98958 7.72429 5.89082 7.95224 5.69329 8.14218C5.49577 8.33212 5.26386 8.42709 4.99755 8.42709C4.73125 8.42709 4.50015 8.33212 4.30425 8.14218C4.10836 7.95224 4.01042 7.72429 4.01042 7.45834C4.01042 7.3264 4.03448 7.20545 4.08259 7.0955C4.1307 6.98554 4.2004 6.88427 4.29167 6.79168L5 6.09376Z" fill="#4CB349"/>
</svg>
