<svg width="24" height="24" viewBox="0 0 24 24" fill="none" xmlns="http://www.w3.org/2000/svg">
<path d="M3.47461 11.25C2.92232 11.25 2.47461 10.8023 2.47461 10.25V3.45001C2.47461 2.89773 2.92232 2.45001 3.47461 2.45001H10.2496C10.8019 2.45001 11.2496 2.89773 11.2496 3.45001V10.25C11.2496 10.8023 10.8019 11.25 10.2496 11.25H3.47461ZM3.47461 21.525C2.92232 21.525 2.47461 21.0773 2.47461 20.525V13.75C2.47461 13.1977 2.92232 12.75 3.47461 12.75H10.2496C10.8019 12.75 11.2496 13.1977 11.2496 13.75V20.525C11.2496 21.0773 10.8019 21.525 10.2496 21.525H3.47461ZM13.7496 11.25C13.1973 11.25 12.7496 10.8023 12.7496 10.25V3.45001C12.7496 2.89773 13.1973 2.45001 13.7496 2.45001H20.5496C21.1019 2.45001 21.5496 2.89773 21.5496 3.45001V10.25C21.5496 10.8023 21.1019 11.25 20.5496 11.25H13.7496ZM13.7496 21.525C13.1973 21.525 12.7496 21.0773 12.7496 20.525V13.75C12.7496 13.1977 13.1973 12.75 13.7496 12.75H20.5496C21.1019 12.75 21.5496 13.1977 21.5496 13.75V20.525C21.5496 21.0773 21.1019 21.525 20.5496 21.525H13.7496Z" fill="white"/>
</svg>
