<svg width="12" height="12" viewBox="0 0 12 12" fill="none" xmlns="http://www.w3.org/2000/svg">
<path d="M6.69158 2.03805C5.98005 1.94051 5.25625 2.08141 4.63326 2.43872C4.01027 2.79604 3.52318 3.34964 3.24808 4.01305C2.61066 4.07831 2.02264 4.38581 1.60539 4.87209C1.18814 5.35837 0.973537 5.98629 1.00587 6.62622C1.03821 7.26615 1.31502 7.86924 1.77916 8.31098C2.2433 8.75272 2.85933 8.99938 3.50008 9.00005H5.00008V7.00005C4.80233 7.00001 4.60903 6.94134 4.44462 6.83145C4.28021 6.72157 4.15207 6.5654 4.0764 6.3827C4.00073 6.2 3.98093 5.99897 4.0195 5.80502C4.05807 5.61107 4.15327 5.4329 4.29308 5.29305L5.29308 4.29305C5.48061 4.10558 5.73492 4.00026 6.00008 4.00026C6.26525 4.00026 6.51955 4.10558 6.70708 4.29305L7.70708 5.29305C7.84689 5.4329 7.9421 5.61107 7.98067 5.80502C8.01923 5.99897 7.99943 6.2 7.92376 6.3827C7.84809 6.5654 7.71995 6.72157 7.55554 6.83145C7.39113 6.94134 7.19783 7.00001 7.00008 7.00005V9.00005H9.00008C9.48738 9.00002 9.9579 8.82208 10.3233 8.49966C10.6887 8.17723 10.9238 7.7325 10.9844 7.24899C11.0451 6.76548 10.9271 6.27646 10.6527 5.87377C10.3783 5.47109 9.96628 5.18244 9.49408 5.06205C9.44878 4.31165 9.14473 3.60016 8.63373 3.04877C8.12273 2.49738 7.43638 2.1402 6.69158 2.03805Z" fill="#3D8BDA"/>
<path d="M6.35354 4.64652C6.25978 4.55278 6.13262 4.50012 6.00004 4.50012C5.86746 4.50012 5.7403 4.55278 5.64654 4.64652L4.64654 5.64652C4.59879 5.69264 4.56069 5.74781 4.53449 5.80881C4.50829 5.86982 4.49449 5.93543 4.49392 6.00181C4.49334 6.0682 4.50599 6.13404 4.53113 6.19549C4.55627 6.25694 4.5934 6.31277 4.64034 6.35971C4.68729 6.40666 4.74312 6.44379 4.80456 6.46893C4.86601 6.49407 4.93185 6.50672 4.99824 6.50614C5.06463 6.50556 5.13024 6.49177 5.19124 6.46557C5.25225 6.43936 5.30742 6.40127 5.35354 6.35352L5.50004 6.20702V9.50002C5.50004 9.63262 5.55272 9.7598 5.64649 9.85357C5.74026 9.94734 5.86743 10 6.00004 10C6.13265 10 6.25983 9.94734 6.35359 9.85357C6.44736 9.7598 6.50004 9.63262 6.50004 9.50002V6.20702L6.64654 6.35352C6.74084 6.44459 6.86714 6.49499 6.99824 6.49385C7.12934 6.49271 7.25475 6.44013 7.34745 6.34742C7.44015 6.25472 7.49274 6.12931 7.49388 5.99822C7.49502 5.86712 7.44462 5.74082 7.35354 5.64652L6.35354 4.64652Z" fill="#3D8BDA"/>
</svg>
