<svg width="12" height="12" viewBox="0 0 12 12" fill="none" xmlns="http://www.w3.org/2000/svg">
<path fill-rule="evenodd" clip-rule="evenodd" d="M1 6C1 3.2385 3.2385 1 6 1C8.7615 1 11 3.2385 11 6C11 8.7615 8.7615 11 6 11C3.2385 11 1 8.7615 1 6ZM6.5 3.8785C6.5 3.74589 6.44732 3.61871 6.35355 3.52495C6.25979 3.43118 6.13261 3.3785 6 3.3785C5.86739 3.3785 5.74021 3.43118 5.64645 3.52495C5.55268 3.61871 5.5 3.74589 5.5 3.8785V5.5H3.8785C3.74589 5.5 3.61871 5.55268 3.52495 5.64645C3.43118 5.74021 3.3785 5.86739 3.3785 6C3.3785 6.13261 3.43118 6.25979 3.52495 6.35355C3.61871 6.44732 3.74589 6.5 3.8785 6.5H5.5V8.1215C5.5 8.25411 5.55268 8.38129 5.64645 8.47505C5.74021 8.56882 5.86739 8.6215 6 8.6215C6.13261 8.6215 6.25979 8.56882 6.35355 8.47505C6.44732 8.38129 6.5 8.25411 6.5 8.1215V6.5H8.1215C8.25411 6.5 8.38129 6.44732 8.47505 6.35355C8.56882 6.25979 8.6215 6.13261 8.6215 6C8.6215 5.86739 8.56882 5.74021 8.47505 5.64645C8.38129 5.55268 8.25411 5.5 8.1215 5.5H6.5V3.8785Z" fill="#4CB349"/>
</svg>
