<svg width="12" height="12" viewBox="0 0 12 12" fill="none" xmlns="http://www.w3.org/2000/svg">
<path fill-rule="evenodd" clip-rule="evenodd" d="M1 6C1 3.2385 3.2385 1 6 1C8.7615 1 11 3.2385 11 6C11 8.7615 8.7615 11 6 11C3.2385 11 1 8.7615 1 6ZM7.8535 5.3535C7.94458 5.2592 7.99498 5.1329 7.99384 5.0018C7.9927 4.8707 7.94011 4.74529 7.84741 4.65259C7.75471 4.55989 7.6293 4.5073 7.4982 4.50616C7.3671 4.50502 7.2408 4.55542 7.1465 4.6465L5.5 6.293L4.6035 5.3965C4.5092 5.30542 4.3829 5.25502 4.2518 5.25616C4.1207 5.2573 3.99529 5.30989 3.90259 5.40259C3.80989 5.49529 3.7573 5.6207 3.75616 5.7518C3.75502 5.8829 3.80542 6.0092 3.8965 6.1035L5.1465 7.3535C5.24026 7.44724 5.36742 7.49989 5.5 7.49989C5.63258 7.49989 5.75974 7.44724 5.8535 7.3535L7.8535 5.3535Z" fill="white"/>
</svg>
