<svg width="11" height="11" viewBox="0 0 11 11" fill="none" xmlns="http://www.w3.org/2000/svg">
<g clip-path="url(#clip0_484_3664)">
<path d="M4.26271 2.82713C4.5891 2.2618 5.06619 1.89656 5.694 1.73139C6.32181 1.56622 6.91717 1.64613 7.48008 1.97113C8.043 2.29613 8.40989 2.77177 8.58075 3.39805C8.75161 4.02434 8.67385 4.62014 8.34746 5.18546C8.07524 5.65696 7.72667 5.98014 7.30176 6.155C6.87685 6.32986 6.46636 6.39918 6.07029 6.36296L4.29113 9.44457L2.60238 8.46957L2.93988 7.885L1.85734 7.26L2.76984 5.67951L3.85238 6.30451L4.38154 5.38796C4.15214 5.06307 4.00693 4.67292 3.94591 4.2175C3.88489 3.76209 3.99049 3.29863 4.26271 2.82713ZM5.56068 3.57898C5.43917 3.78944 5.40955 4.00727 5.47182 4.23246C5.53409 4.45766 5.66879 4.63005 5.87592 4.74963C6.0828 4.86908 6.29938 4.8995 6.52567 4.8409C6.75195 4.7823 6.92584 4.64777 7.04735 4.43731C7.16609 4.23166 7.19461 4.01559 7.13293 3.78909C7.07125 3.56259 6.93577 3.38892 6.72648 3.26809C6.522 3.15003 6.30626 3.12092 6.07926 3.18076C5.85227 3.24059 5.67941 3.37333 5.56068 3.57898Z" fill="white" fill-opacity="0.5"/>
</g>
<defs>
<clipPath id="clip0_484_3664">
<rect width="8" height="8" fill="white" transform="translate(10.9277 4) rotate(120)"/>
</clipPath>
</defs>
</svg>
