<svg width="14" height="14" viewBox="0 0 14 14" fill="none" xmlns="http://www.w3.org/2000/svg">
<g clip-path="url(#clip0_491_3791)">
<path d="M12.3901 7.19614L11.9031 6.15459L10.8481 5.65411L11.9031 5.16715L12.3901 4.11208L12.8906 5.16715L13.9321 5.65411L12.8906 6.15459L12.3901 7.19614ZM10.7669 4.66667L10.05 3.057L8.44033 2.32657L10.05 1.60966L10.7669 0L11.4973 1.60966L13.107 2.32657L11.4973 3.057L10.7669 4.66667ZM4.73405 14C4.38236 14 4.08027 13.8602 3.82777 13.5807C3.57527 13.3011 3.45353 12.9585 3.46255 12.5527H6.01907C6.02809 12.9585 5.9041 13.3011 5.64709 13.5807C5.39009 13.8602 5.08574 14 4.73405 14ZM2.3669 11.9981V10.5778H7.11473V11.9981H2.3669ZM2.52922 10.0232C1.79878 9.59034 1.20587 9.0087 0.750475 8.27826C0.29508 7.54783 0.0673828 6.74976 0.0673828 5.88406C0.0673828 4.59452 0.522777 3.49436 1.43357 2.58357C2.34436 1.67279 3.44452 1.21739 4.73405 1.21739C6.02358 1.21739 7.126 1.67279 8.0413 2.58357C8.95659 3.49436 9.41424 4.59452 9.41424 5.88406C9.41424 6.74976 9.1888 7.54783 8.73791 8.27826C8.28703 9.0087 7.69186 9.59034 6.95241 10.0232H2.52922Z" fill="#F1C12A"/>
</g>
<defs>
<clipPath id="clip0_491_3791">
<rect width="14" height="14" fill="white"/>
</clipPath>
</defs>
</svg>
