<svg width="24" height="24" viewBox="0 0 24 24" fill="none" xmlns="http://www.w3.org/2000/svg">
<path d="M3.7037 18.25C3.3347 18.25 3.03353 18.1292 2.8002 17.8875C2.56686 17.6458 2.4502 17.361 2.4502 17.0331C2.4502 16.6844 2.56832 16.3917 2.80457 16.155C3.04084 15.9183 3.33514 15.8 3.68747 15.8C4.03982 15.8 4.3342 15.9197 4.5706 16.1591C4.807 16.3985 4.9252 16.6844 4.9252 17.0169C4.9252 17.3656 4.8048 17.6583 4.56402 17.895C4.32324 18.1317 4.03646 18.25 3.7037 18.25ZM3.7037 13.225C3.3347 13.225 3.03353 13.1054 2.8002 12.8661C2.56686 12.6268 2.4502 12.3368 2.4502 11.9961C2.4502 11.6554 2.56832 11.3667 2.80457 11.13C3.04084 10.8933 3.33514 10.775 3.68747 10.775C4.03982 10.775 4.3342 10.8947 4.5706 11.134C4.807 11.3733 4.9252 11.6633 4.9252 12.004C4.9252 12.3447 4.8048 12.6333 4.56402 12.87C4.32324 13.1067 4.03646 13.225 3.7037 13.225ZM3.7037 8.17501C3.3347 8.17501 3.03353 8.05938 2.8002 7.82813C2.56686 7.59686 2.4502 7.31103 2.4502 6.97063C2.4502 6.63021 2.56832 6.33751 2.80457 6.09251C3.04084 5.84751 3.33514 5.72501 3.68747 5.72501C4.03982 5.72501 4.3342 5.84991 4.5706 6.09971C4.807 6.34951 4.9252 6.6344 4.9252 6.95438C4.9252 7.31146 4.8048 7.60417 4.56402 7.83251C4.32324 8.06084 4.03646 8.17501 3.7037 8.17501ZM8.50019 18.175C7.94791 18.175 7.5002 17.7273 7.5002 17.175V16.875C7.5002 16.3227 7.94791 15.875 8.5002 15.875H20.5752C21.1275 15.875 21.5752 16.3227 21.5752 16.875V17.175C21.5752 17.7273 21.1275 18.175 20.5752 18.175H8.50019ZM8.50019 13.15C7.94791 13.15 7.5002 12.7023 7.5002 12.15V11.875C7.5002 11.3227 7.94791 10.875 8.5002 10.875H20.5752C21.1275 10.875 21.5752 11.3227 21.5752 11.875V12.15C21.5752 12.7023 21.1275 13.15 20.5752 13.15H8.50019ZM8.50019 8.12501C7.94791 8.12501 7.5002 7.67729 7.5002 7.12501V6.82501C7.5002 6.27272 7.94791 5.82501 8.5002 5.82501H20.5752C21.1275 5.82501 21.5752 6.27272 21.5752 6.82501V7.12501C21.5752 7.67729 21.1275 8.12501 20.5752 8.12501H8.50019Z" fill="white"/>
</svg>
