<svg width="12" height="12" viewBox="0 0 12 12" fill="none" xmlns="http://www.w3.org/2000/svg">
<g clip-path="url(#clip0_484_3669)">
<path d="M3.1248 11.6C2.65835 11.6 2.2584 11.4333 1.92495 11.0998C1.59152 10.7664 1.4248 10.3665 1.4248 9.90001V5.16251C1.4248 4.68439 1.59152 4.28152 1.92495 3.95391C2.2584 3.62631 2.65835 3.46251 3.1248 3.46251H3.1748V2.82501C3.1748 2.02501 3.4506 1.34585 4.00218 0.787512C4.55376 0.229179 5.21964 -0.0499878 5.9998 -0.0499878C6.77997 -0.0499878 7.44585 0.229179 7.99743 0.787512C8.54901 1.34585 8.82481 2.02501 8.82481 2.82501V3.46251H8.87481C9.34126 3.46251 9.74121 3.62631 10.0746 3.95391C10.4081 4.28152 10.5748 4.68439 10.5748 5.16251V9.90001C10.5748 10.3665 10.4081 10.7664 10.0746 11.0998C9.74121 11.4333 9.34126 11.6 8.87481 11.6H3.1248ZM6.00179 8.61251C6.30047 8.61251 6.55189 8.50766 6.75606 8.29796C6.96022 8.08827 7.0623 7.83619 7.0623 7.54171C7.0623 7.24725 6.95956 6.99585 6.75407 6.78751C6.54857 6.57918 6.29648 6.47501 5.99782 6.47501C5.69914 6.47501 5.44772 6.57925 5.24356 6.78771C5.03939 6.99617 4.9373 7.24677 4.9373 7.5395C4.9373 7.83567 5.04005 8.08855 5.24554 8.29814C5.45104 8.50772 5.70313 8.61251 6.00179 8.61251ZM4.8748 3.46251H7.1248V2.82501C7.1248 2.49724 7.01598 2.21946 6.79833 1.99167C6.58069 1.7639 6.31402 1.65001 5.99833 1.65001C5.68265 1.65001 5.41647 1.7639 5.19981 1.99167C4.98314 2.21946 4.8748 2.49724 4.8748 2.82501V3.46251Z" fill="#E2624A"/>
</g>
<defs>
<clipPath id="clip0_484_3669">
<rect width="12" height="12" fill="white"/>
</clipPath>
</defs>
</svg>
