<svg width="10" height="10" viewBox="0 0 10 10" fill="none" xmlns="http://www.w3.org/2000/svg">
<g clip-path="url(#clip0_488_3701)">
<path d="M8.68783 9.93749L7.04199 8.29166L5.97949 7.22916C5.93088 7.45138 5.8164 7.63714 5.63603 7.78645C5.45568 7.93575 5.24378 8.01041 5.00033 8.01041C4.7347 8.01041 4.50336 7.91599 4.30632 7.72717C4.10927 7.53835 4.01074 7.30984 4.01074 7.04166C4.01074 6.90698 4.0348 6.78534 4.08292 6.67676C4.13103 6.56817 4.20072 6.46758 4.29199 6.37499L4.70866 5.95832L3.70866 4.95832L3.31283 5.35416C3.07671 5.57638 2.8979 5.8318 2.77637 6.12042C2.65484 6.40903 2.59408 6.71827 2.59408 7.04811C2.59408 7.3077 2.63367 7.55567 2.71286 7.79204C2.79204 8.02841 2.9087 8.24356 3.06283 8.43749C2.56283 8.12499 2.16178 7.70404 1.8597 7.17464C1.55762 6.64523 1.40658 6.05924 1.40658 5.41666C1.40658 5.02271 1.46452 4.64825 1.58042 4.29329C1.69631 3.93833 1.85017 3.60446 2.04199 3.29166L0.0107422 1.26041L0.781576 0.489573L9.45866 9.16666L8.68783 9.93749ZM8.40658 6.57291L3.46908 1.64582C3.93435 1.24305 4.34928 0.93749 4.71387 0.729156L5.26074 0.416656V2.20832C5.26074 2.38498 5.3208 2.52463 5.44092 2.62727C5.56103 2.72992 5.69556 2.78124 5.8445 2.78124C5.92061 2.78124 5.99658 2.76423 6.07241 2.7302C6.14825 2.69617 6.21797 2.64027 6.28158 2.56249L6.60449 2.15624C7.20866 2.51041 7.6913 2.97568 8.05241 3.55207C8.41352 4.12846 8.59408 4.74999 8.59408 5.41666C8.59408 5.61686 8.57845 5.81274 8.5472 6.0043C8.51595 6.19587 8.46908 6.38541 8.40658 6.57291Z" fill="#E2624A"/>
</g>
<defs>
<clipPath id="clip0_488_3701">
<rect width="10" height="10" fill="white"/>
</clipPath>
</defs>
</svg>
