<svg width="24" height="24" viewBox="0 0 24 24" fill="none" xmlns="http://www.w3.org/2000/svg">
<path d="M11.3797 24C8.73945 23.8015 6.51613 22.7295 4.70968 20.7841C2.90323 18.8387 2 16.5459 2 13.9057C2 12.3375 2.36725 10.8486 3.10174 9.43921C3.83623 8.02978 4.84864 6.86849 6.13896 5.95534L8.07444 7.89082C7.02233 8.52605 6.19851 9.38462 5.60298 10.4665C5.00744 11.5484 4.70968 12.6948 4.70968 13.9057C4.70968 15.8313 5.34491 17.4888 6.61538 18.8784C7.88586 20.268 9.47395 21.062 11.3797 21.2605V24ZM13.0769 24V21.2605C15.0223 21.0223 16.6104 20.2184 17.8412 18.8486C19.072 17.4789 19.6873 15.8313 19.6873 13.9057C19.6873 11.9206 19.0124 10.2134 17.6625 8.78412C16.3127 7.35484 14.6452 6.58065 12.66 6.46154H11.9752L13.9107 8.4268L12.4516 9.91563L7.53846 4.9727L12.4516 0L13.9107 1.45906L11.6476 3.72208H12.3623C15.1414 3.72208 17.5136 4.7196 19.4789 6.71464C21.4442 8.70968 22.4268 11.1067 22.4268 13.9057C22.4268 16.5459 21.5236 18.8288 19.7171 20.7543C17.9107 22.6799 15.6973 23.7618 13.0769 24Z" fill="#4CB349"/>
</svg>
