<svg width="24" height="24" viewBox="0 0 24 24" fill="none" xmlns="http://www.w3.org/2000/svg">
<path d="M11.2496 21.975C10.9735 21.975 10.7496 21.7511 10.7496 21.475V15.425C10.7496 15.1489 10.9735 14.925 11.2496 14.925H13.2746C13.5508 14.925 13.7746 15.1489 13.7746 15.425V16.45C13.7746 16.7261 13.9985 16.95 14.2746 16.95H21.2496C21.5258 16.95 21.7496 17.1739 21.7496 17.45V19.475C21.7496 19.7511 21.5258 19.975 21.2496 19.975H14.2746C13.9985 19.975 13.7746 20.1989 13.7746 20.475V21.475C13.7746 21.7511 13.5508 21.975 13.2746 21.975H11.2496ZM2.72461 19.975C2.44847 19.975 2.22461 19.7511 2.22461 19.475V17.45C2.22461 17.1739 2.44847 16.95 2.72461 16.95H8.84961C9.12575 16.95 9.34961 17.1739 9.34961 17.45V19.475C9.34961 19.7511 9.12575 19.975 8.84961 19.975H2.72461ZM6.82461 15.5C6.54847 15.5 6.32461 15.2761 6.32461 15V14C6.32461 13.7239 6.10075 13.5 5.82461 13.5H2.72461C2.44847 13.5 2.22461 13.2761 2.22461 13V11C2.22461 10.7239 2.44847 10.5 2.72461 10.5H5.82461C6.10075 10.5 6.32461 10.2761 6.32461 9.99999V8.99999C6.32461 8.72385 6.54847 8.49999 6.82461 8.49999H8.84961C9.12575 8.49999 9.34961 8.72385 9.34961 8.99999V15C9.34961 15.2761 9.12575 15.5 8.84961 15.5H6.82461ZM11.2496 13.5C10.9735 13.5 10.7496 13.2761 10.7496 13V11C10.7496 10.7239 10.9735 10.5 11.2496 10.5H21.2496C21.5258 10.5 21.7496 10.7239 21.7496 11V13C21.7496 13.2761 21.5258 13.5 21.2496 13.5H11.2496ZM15.1246 9.07499C14.8485 9.07499 14.6246 8.85114 14.6246 8.57499V2.52499C14.6246 2.24885 14.8485 2.02499 15.1246 2.02499H17.1496C17.4258 2.02499 17.6496 2.24885 17.6496 2.52499V3.52499C17.6496 3.80114 17.8735 4.02499 18.1496 4.02499H21.2496C21.5258 4.02499 21.7496 4.24885 21.7496 4.52499V6.54999C21.7496 6.82614 21.5258 7.04999 21.2496 7.04999H18.1496C17.8735 7.04999 17.6496 7.27385 17.6496 7.54999V8.57499C17.6496 8.85114 17.4258 9.07499 17.1496 9.07499H15.1246ZM2.72461 7.04999C2.44847 7.04999 2.22461 6.82614 2.22461 6.54999V4.52499C2.22461 4.24885 2.44847 4.02499 2.72461 4.02499H12.7246C13.0008 4.02499 13.2246 4.24885 13.2246 4.52499V6.54999C13.2246 6.82614 13.0008 7.04999 12.7246 7.04999H2.72461Z" fill="white" fill-opacity="0.2"/>
</svg>
